<?xml version="1.0" encoding="utf-8"?>
<!-- Generator: Adobe Illustrator 25.4.2, SVG Export Plug-In . SVG Version: 6.00 Build 0)  -->
<svg version="1.1" id="Camada_1" xmlns="http://www.w3.org/2000/svg" xmlns:xlink="http://www.w3.org/1999/xlink" x="0px" y="0px"
	 viewBox="0 0 290.45 312.82" style="enable-background:new 0 0 290.45 312.82;" xml:space="preserve">
<style type="text/css">
	.st0{fill:#CD090B;}
</style>
<g>
	<path class="st0" d="M206.06,239.14c2.03,0,3.65,0.02,5.27,0c5.15-0.07,7.16-2.06,7.17-7.2c0.02-11.54,0.01-23.08,0.01-34.61
		c0-52.45,0-104.89-0.01-157.34c0-1.22,0.04-2.47-0.19-3.66c-0.46-2.41-1.78-4.18-4.34-4.63c-1.28-0.22-2.6-0.28-3.9-0.29
		c-47.9-0.01-95.8-0.01-143.7-0.01c-5.98,0-7.84,1.84-7.84,7.85c0,63.98,0,127.97,0.01,191.95c0,6.19,1.74,7.92,7.98,7.93
		c17.39,0.01,34.79,0,52.18,0.01c3.35,0,3.41,0.03,2.52,3.14c-0.97,3.35-2.16,6.64-3.07,10.01c-0.46,1.72-1.62,1.53-2.83,1.53
		c-10.31,0-20.63,0.01-30.94,0c-6.82-0.01-13.63-0.02-20.45-0.07c-11.27-0.08-19.98-9.1-20.16-20.85c-0.02-1.31-0.01-2.62-0.01-3.93
		c0-63.28,0-126.57-0.01-189.85c0-7.29,2.2-13.56,8.14-18.16c4.2-3.24,9.05-4.29,14.26-4.29c42.39,0.03,84.79,0.02,127.18,0.02
		c6.03,0,12.06-0.02,18.09,0.01c12.97,0.07,21.52,8.48,21.8,21.42c0.02,0.96,0,1.92,0,2.88c0,63.37,0,126.74,0.01,190.12
		c0,7.25-1.96,13.6-7.87,18.31c-3.7,2.95-7.94,4.3-12.61,4.3c-0.55,0-1.43-0.48-1.61-0.95
		C209.45,248.42,207.86,244.02,206.06,239.14z"/>
	<path class="st0" d="M218.29,290.72c-6.37-3.66-12.22-7.02-18.43-10.59c-2.49,8.16-4.9,16.02-7.31,23.89
		c-0.2,0.05-0.41,0.09-0.61,0.14c-7.18-18.83-14.35-37.67-21.35-56.02c-3.92,0-7.53-0.07-11.13,0.08c-0.51,0.02-1.21,1.08-1.43,1.78
		c-2.7,8.39-5.32,16.81-7.97,25.22c-1.64,5.2-3.31,10.4-5.51,15.56c-2.65-7.66-5.3-15.33-8.05-23.28
		c-6.41,4.33-12.5,8.44-18.6,12.55c-0.16-0.12-0.33-0.25-0.49-0.37c1.76-5.64,3.52-11.28,5.28-16.91
		c2.42-7.75,4.81-15.51,7.28-23.24c0.53-1.66,0.22-2.56-1.25-3.69c-5.13-3.94-8-9.23-7.79-15.79c0.11-3.44-0.77-6.24-3.05-8.83
		c-7.43-8.43-6.66-20.39,1.83-27.82c1.71-1.5,1.64-3.06,1.38-4.92c-1.13-8.21,1.68-14.79,8.48-19.5c4.51-3.12,9.6-4.17,14.98-2.89
		c1.78,0.42,2.79,0.11,3.94-1.34c7.52-9.53,20.31-10.92,28.94-2.48c3.13,3.07,6.41,4.38,10.22,5.8c6.85,2.55,11.18,7.73,12.18,15.12
		c0.41,3,1.52,5.06,4.01,6.88c8.75,6.37,9.89,19.22,3.35,28.08c-2.13,2.89-3.33,6.96-3.63,10.6c-0.42,5.22-1.25,10.05-4.77,14.04
		c-1.26,1.43-1.16,2.6-0.54,4.24c6.5,17.14,12.92,34.31,19.36,51.47C217.83,288.99,217.95,289.56,218.29,290.72z M198.54,198.3
		c-0.08-20.18-16.48-36.52-36.56-36.43c-19.93,0.09-36.17,16.48-36.16,36.51c0.01,19.93,16.67,36.58,36.36,36.35
		C182.33,234.49,198.62,218.17,198.54,198.3z"/>
	<path class="st0" d="M132.83,99.75c15.21,0,30.41,0,45.62,0c2.86,0,5.53,0.24,7.44,2.89c2.72,3.76,1.04,9.12-3.44,10.33
		c-1.41,0.38-2.93,0.51-4.4,0.51c-30.32,0.03-60.65,0.03-90.97,0.02c-4.97,0-7.73-1.87-8.49-5.69c-0.71-3.57,1.66-7.16,5.25-7.79
		c1.28-0.22,2.61-0.27,3.91-0.27C102.77,99.74,117.8,99.75,132.83,99.75z"/>
	<path class="st0" d="M133.01,64.29c15.29,0,30.58,0,45.87,0c2.9,0,5.5,0.5,7.23,3.26c2.48,3.97,0.5,9.07-4.08,10.04
		c-1.27,0.27-2.59,0.36-3.89,0.36c-30.32,0.02-60.64,0.05-90.95-0.06c-2.14-0.01-4.58-0.61-6.34-1.76c-2.2-1.45-2.99-4.03-2.13-6.76
		c0.86-2.72,2.64-4.49,5.54-4.9c1.03-0.15,2.09-0.17,3.13-0.17C102.61,64.29,117.81,64.29,133.01,64.29z"/>
</g>
</svg>
