<?xml version="1.0" encoding="utf-8"?>
<!-- Generator: Adobe Illustrator 25.4.2, SVG Export Plug-In . SVG Version: 6.00 Build 0)  -->
<svg version="1.1" id="Camada_1" xmlns="http://www.w3.org/2000/svg" xmlns:xlink="http://www.w3.org/1999/xlink" x="0px" y="0px"
	 viewBox="0 0 290.45 312.82" style="enable-background:new 0 0 290.45 312.82;" xml:space="preserve">
<style type="text/css">
	.st0{fill:#CD090B;}
</style>
<g>
	<path class="st0" d="M109.6,229.84c-0.68,9.9-4.62,18.02-12.21,24.23c-5.82,4.76-12.58,7.39-20.07,7.19
		c-4.14-0.11-8.48-0.81-12.31-2.31c-3.83-1.5-7.57-3.88-10.55-6.72c-2.98-2.83-5.48-6.47-7.28-10.19
		c-1.79-3.71-2.46-7.98-3.72-12.34c-5.5,0-11.4,0-17.29,0c-4.91,0-7.41-1.81-7.31-5.3c0.09-3.4,2.55-5.13,7.27-5.13
		c5.57,0,11.14-0.07,16.71,0.04c1.85,0.04,2.76-0.45,3.49-2.31c8.79-22.52,37.28-28.35,54.01-10.91c3.01,3.14,4.95,7.36,7.1,11.23
		c0.77,1.39,1.41,1.97,2.99,1.97c17.73-0.04,35.45-0.04,53.18,0.03c1.9,0.01,2.72-0.68,3.54-2.36c6-12.3,15.76-19.25,29.6-19.34
		c13.93-0.09,23.9,6.71,29.99,19.11c0.99,2.02,2.03,2.67,4.17,2.57c5.3-0.25,10.66,0.13,15.92-0.48
		c8.69-1.02,15.86-8.93,15.96-17.69c0.2-17.72,0.06-35.45,0.04-53.18c0-0.23-0.12-0.47-0.32-1.25c-2.91,0-5.92,0-8.92,0
		c-27.01,0-54.02,0-81.03,0.01c-0.92,0-1.85,0.13-2.77,0.21c-3.54,0.28-6.17-2.12-6.17-5.69c-0.01-19.08-0.03-38.15,0-57.23
		c0.02-11.93-8.26-20.21-20.18-20.2c-25.49,0.02-50.98-0.01-76.47-0.03c-3.5,0-5.41-1.16-6.22-3.68c-1.15-3.59,1.38-6.8,5.5-6.81
		c11.31-0.04,22.62-0.03,33.93-0.03c14.86,0,29.71-0.08,44.57,0.05c14.17,0.12,26.25,10.29,28.83,24.16
		c0.53,2.87,0.57,5.83,0.86,9.05c3.15,0,6.26,0.01,9.36,0c9.45-0.05,18.9-0.19,28.35-0.08c1.51,0.02,3.39,0.79,4.46,1.85
		c15.29,15.15,30.49,30.39,45.65,45.67c1.6,1.61,3.09,2.48,5.48,2.3c3.59-0.27,5.82,2.15,5.81,5.74
		c-0.04,19.16-0.04,38.32-0.11,57.48c-0.06,15.05-10.12,27.34-24.88,29.73c-5.19,0.84-10.6,0.5-15.91,0.44
		c-2.3-0.03-2.95,0.67-3.11,2.94c-1.16,16.55-14.35,29.44-30.85,30.31c-16.26,0.86-30.77-10.62-33.84-26.76
		c-0.09-0.5-0.16-1-0.21-1.5c-0.52-4.89-0.51-4.89-5.54-4.89c-15.62-0.01-31.23-0.02-46.85-0.02
		C111.39,229.71,110.57,229.79,109.6,229.84z M174.31,96.95c0,13.31,0,26.18,0,39.17c24.97,0,49.77,0,74.96,0
		c-0.63-0.77-0.98-1.3-1.43-1.74c-12.04-12.05-24.06-24.11-36.18-36.07c-0.83-0.82-2.37-1.26-3.58-1.27
		c-10.29-0.11-20.57-0.07-30.86-0.08C176.32,96.95,175.41,96.95,174.31,96.95z M76.97,250.8c12.16-0.04,22.05-9.93,22.07-22.06
		c0.02-12.4-10.01-22.43-22.34-22.34c-12.28,0.09-22.06,10.02-22.03,22.35C54.72,241.07,64.6,250.84,76.97,250.8z M196.95,252.35
		c12.32,0.01,22.23-9.83,22.28-22.11c0.05-12.22-9.91-22.18-22.19-22.22c-12.27-0.04-22.23,9.87-22.25,22.13
		C174.77,242.43,184.65,252.33,196.95,252.35z"/>
	<path class="st0" d="M47.03,160.14c-8.85,0-17.7,0.01-26.55-0.01c-3.91-0.01-6.31-2.08-6.28-5.34c0.03-3.13,2.43-5.19,6.19-5.19
		c17.78-0.02,35.57-0.01,53.35,0c3.71,0,6.17,2.12,6.18,5.23c0.01,3.15-2.39,5.29-6.09,5.3C64.9,160.16,55.97,160.14,47.03,160.14z"
		/>
	<path class="st0" d="M58.02,125.75c-8.93,0-17.87,0.02-26.8-0.01c-3.82-0.01-6.05-2.01-6.02-5.27c0.03-3.21,2.32-5.21,6.13-5.21
		c17.78-0.02,35.56-0.02,53.34,0c3.83,0,6.11,1.99,6.16,5.2c0.05,3.31-2.25,5.28-6.27,5.28C75.72,125.76,66.87,125.75,58.02,125.75z
		"/>
	<path class="st0" d="M68.96,91.39c-9.1,0-18.2,0.02-27.3-0.01c-2.77-0.01-4.63-1.39-5.31-3.79c-0.69-2.42,0.14-4.37,2.15-5.7
		c0.85-0.56,2.04-0.87,3.08-0.87c18.29-0.05,36.57-0.06,54.86-0.01c3.23,0.01,5.38,2.2,5.4,5.14c0.02,3.06-2.17,5.22-5.56,5.24
		C87.16,91.43,78.06,91.4,68.96,91.39z"/>
</g>
</svg>
