<?xml version="1.0" encoding="utf-8"?>
<!-- Generator: Adobe Illustrator 25.4.2, SVG Export Plug-In . SVG Version: 6.00 Build 0)  -->
<svg version="1.1" id="Camada_1" xmlns="http://www.w3.org/2000/svg" xmlns:xlink="http://www.w3.org/1999/xlink" x="0px" y="0px"
	 viewBox="0 0 290.45 312.82" style="enable-background:new 0 0 290.45 312.82;" xml:space="preserve">
<style type="text/css">
	.st0{fill:#CD090B;}
</style>
<g>
	<path class="st0" d="M196.83,142.38c0,6.82-0.02,13.63,0.01,20.45c0.03,6.99,0.04,13.99,0.2,20.98c0.07,2.98-1.05,4.97-3.61,6.56
		c-13.87,8.56-27.69,17.22-41.5,25.88c-2,1.25-3.94,1.19-6.02,0.35c-11.55-4.66-23.11-9.3-34.66-13.95c-4.6-1.85-9.2-3.7-13.79-5.55
		c-3.54-1.42-4.42-2.67-4.4-6.44c0.04-7.86,0.16-15.72,0.15-23.58c-0.01-9.91-0.04-19.82-0.19-29.72c-0.05-3.31,1.38-5.28,4.34-6.6
		c14.21-6.33,28.38-12.73,42.54-19.16c1.91-0.87,3.72-1.07,5.75-0.49c15.67,4.46,31.36,8.86,47.04,13.29
		c2.97,0.84,4.27,2.55,4.31,5.7c0.05,4.09,0.01,8.18,0.01,12.28C196.95,142.38,196.89,142.38,196.83,142.38z M103.55,143.35
		c-0.06,0.66-0.13,1.03-0.13,1.39c0,14.05,0.01,28.11-0.03,42.16c0,1.16,0.48,1.61,1.46,2c10.24,4.08,20.46,8.2,30.69,12.31
		c2.57,1.03,5.14,2.06,7.86,3.14c0.06-0.69,0.13-1.11,0.13-1.52c0-14.94-0.02-29.87,0.04-44.81c0.01-1.35-0.52-1.81-1.67-2.18
		c-8.25-2.66-16.48-5.38-24.72-8.07C112.72,146.31,108.26,144.87,103.55,143.35z M186.62,138.33c-0.69,0.31-1.03,0.43-1.35,0.6
		c-10.04,5.38-20.07,10.79-30.14,16.13c-1.11,0.59-1.2,1.36-1.2,2.4c0.02,14.5,0.01,29,0.02,43.5c0,0.46,0.07,0.91,0.13,1.52
		c0.46-0.21,0.75-0.31,1-0.47c9.98-6.23,19.95-12.5,29.96-18.68c1.22-0.75,1.63-1.56,1.63-2.97c-0.05-13.31-0.03-26.61-0.03-39.92
		C186.62,139.85,186.62,139.24,186.62,138.33z M112.88,135.21c0.57,0.31,0.71,0.42,0.88,0.48c11.13,3.64,22.25,7.3,33.4,10.87
		c0.74,0.24,1.83-0.03,2.56-0.42c8.76-4.63,17.49-9.34,26.23-14.02c0.52-0.28,1.02-0.61,1.72-1.03c-0.52-0.22-0.79-0.37-1.07-0.45
		c-10.55-2.97-21.1-5.96-31.68-8.86c-0.86-0.23-1.98-0.09-2.81,0.28c-5.73,2.5-11.42,5.11-17.13,7.68
		C121.05,131.51,117.12,133.29,112.88,135.21z"/>
	<path class="st0" d="M260.85,169.16c-1.1,0-1.76,0-2.41,0c-11.29,0-22.57-0.11-33.86,0.07c-3.53,0.06-6.56-3.82-5.56-6.69
		c0.79-2.27,2.49-3.42,4.73-3.6c2.71-0.21,5.44-0.16,8.16-0.17c9.24-0.02,18.47-0.01,27.71-0.01c0.24,0,0.49-0.04,1.05-0.08
		c-0.46-0.56-0.74-0.98-1.1-1.34c-2.71-2.72-5.45-5.42-8.15-8.15c-2.4-2.42-2.5-5.62-0.29-7.75c2.13-2.06,5.32-1.91,7.64,0.4
		c6.01,6,12.02,12,18.01,18.03c2.65,2.66,2.68,5.53,0.07,8.16c-6.03,6.07-12.08,12.12-18.14,18.16c-2.31,2.3-5.55,2.39-7.64,0.28
		c-2.11-2.14-2.01-5.32,0.28-7.64c2.66-2.69,5.35-5.35,8.01-8.03C259.77,170.38,260.15,169.93,260.85,169.16z"/>
	<path class="st0" d="M150.81,279.7c1.99-2.09,3.97-4.19,5.97-6.27c1.16-1.2,2.31-2.42,3.55-3.55c2.13-1.93,5.24-1.83,7.22,0.17
		c1.89,1.91,2.08,5.09,0.14,7.07c-6.34,6.45-12.74,12.85-19.18,19.19c-1.94,1.91-4.94,1.93-6.9,0.01
		c-6.46-6.33-12.86-12.72-19.2-19.17c-2-2.04-1.77-5.27,0.23-7.2c2.02-1.94,5.09-1.99,7.21,0.04c2.82,2.7,5.53,5.5,8.3,8.26
		c0.42,0.42,0.88,0.81,1.7,1.58c0-1.15,0-1.86,0-2.57c0-11.21-0.01-22.42-0.01-33.63c0-3.99,3.35-6.72,6.84-5.57
		c2.05,0.68,3.55,2.99,3.55,5.57c0.01,11.28,0.01,22.55,0.01,33.83c0,0.61,0,1.23,0,1.84C150.42,279.44,150.61,279.57,150.81,279.7z
		"/>
	<path class="st0" d="M29.2,169.8c2.02,1.87,4.06,3.73,6.07,5.63c1.22,1.15,2.4,2.33,3.56,3.54c2.16,2.25,2.2,5.44,0.13,7.5
		c-2.02,2.01-5.21,2.08-7.35-0.05c-6.3-6.23-12.57-12.5-18.79-18.81c-2.12-2.16-2.08-5.16,0.07-7.34
		c6.18-6.26,12.4-12.49,18.66-18.68c2.2-2.18,5.45-2.12,7.49-0.02c1.98,2.04,1.94,5.19-0.17,7.35c-2.68,2.75-5.43,5.44-8.14,8.16
		c-0.42,0.42-0.82,0.88-1.47,1.59c0.97,0.04,1.62,0.1,2.26,0.1c11.21,0,22.43-0.01,33.64,0.01c4.72,0.01,7.25,3.98,5.12,7.96
		c-1.04,1.94-2.81,2.43-4.86,2.43c-11.28-0.01-22.57-0.01-33.85-0.01c-0.65,0-1.3,0-1.95,0C29.48,169.37,29.34,169.58,29.2,169.8z"
		/>
	<path class="st0" d="M139.26,48.26c-1.91,2.01-3.8,4.02-5.73,6.02c-1.07,1.12-2.17,2.21-3.28,3.29c-2.43,2.36-5.66,2.49-7.76,0.31
		c-2.07-2.14-1.94-5.3,0.37-7.64c3.27-3.3,6.57-6.57,9.86-9.86c2.72-2.71,5.43-5.44,8.16-8.14c2.71-2.69,5.58-2.69,8.29,0.01
		c5.97,5.95,11.93,11.9,17.88,17.87c2.44,2.45,2.63,5.57,0.49,7.75c-2.18,2.22-5.36,2.04-7.88-0.47c-2.64-2.62-5.26-5.26-7.89-7.88
		c-0.38-0.38-0.79-0.72-1.55-1.41c0,1.05,0,1.7,0,2.34c-0.03,11.34-0.04,22.68-0.12,34.02c-0.03,3.34-2.18,5.63-4.98,5.56
		c-3.07-0.07-5.29-2.43-5.3-5.74c-0.01-11.16,0-22.31,0.01-33.47c0-0.74,0-1.48,0-2.22C139.64,48.51,139.45,48.39,139.26,48.26z"/>
	<path class="st0" d="M59.34,86.29c0,4.4,0.02,8.79-0.01,13.19c-0.02,2.31-1.03,4.09-3.21,4.99c-1.93,0.8-3.92,0.62-5.34-0.92
		c-0.89-0.97-1.72-2.44-1.74-3.7c-0.15-8.93-0.12-17.85-0.06-26.78c0.02-3.13,2.17-5.13,5.41-5.14c8.74-0.04,17.48-0.04,26.23,0.01
		c3.1,0.02,5.24,2.17,5.28,5.08c0.04,2.98-2.1,5.2-5.3,5.27c-3.9,0.08-7.81,0.02-11.72,0.03c-0.54,0-1.07,0.05-1.61,0.07
		c-0.15,0.19-0.3,0.37-0.45,0.56c0.72,0.55,1.5,1.02,2.14,1.66c7.82,7.78,15.63,15.58,23.42,23.39c2.36,2.37,2.62,5.25,0.72,7.49
		c-2.07,2.45-5.47,2.44-8.02-0.09c-7.29-7.26-14.56-14.54-21.83-21.83c-1.17-1.17-2.27-2.4-3.41-3.6
		C59.68,86.07,59.51,86.18,59.34,86.29z"/>
	<path class="st0" d="M230.05,85.83c-0.56,0.71-1.06,1.49-1.69,2.13c-7.78,7.82-15.59,15.61-23.38,23.42
		c-1.56,1.56-3.34,2.35-5.55,1.68c-2.02-0.61-3.25-2-3.65-4.06c-0.4-2.09,0.52-3.69,1.97-5.14c7.95-7.91,15.87-15.85,23.8-23.79
		c0.46-0.46,0.89-0.95,1.67-1.8c-1.43,0-2.39,0-3.36,0c-3.53,0-7.07,0.08-10.6-0.02c-3.08-0.09-5.16-2.32-5.14-5.23
		c0.02-2.9,2.19-5.1,5.25-5.11c8.8-0.04,17.6-0.05,26.41,0c3.25,0.02,5.26,2.13,5.27,5.47c0.04,8.68,0.03,17.36,0,26.03
		c-0.01,3.21-2.15,5.41-5.12,5.43c-2.97,0.02-5.17-2.15-5.23-5.34c-0.07-3.84-0.01-7.69-0.02-11.53c0-0.59-0.05-1.18-0.08-1.77
		C230.42,86.09,230.24,85.96,230.05,85.83z"/>
	<path class="st0" d="M59.86,241.97c2.54-2.6,5.06-5.21,7.62-7.79c5.81-5.84,11.65-11.67,17.47-17.5c2.55-2.55,5.66-2.74,7.89-0.5
		c2.21,2.22,2,5.32-0.58,7.89c-7.71,7.72-15.42,15.43-23.15,23.14c-0.65,0.65-1.37,1.25-2.45,2.23c1.03,0.1,1.53,0.19,2.03,0.2
		c3.91,0.01,7.81-0.04,11.72,0.02c3.27,0.05,5.44,2.13,5.48,5.09c0.05,3.09-2.14,5.26-5.46,5.28c-6.63,0.04-13.27,0.01-19.9,0.01
		c-2.11,0-4.22,0.04-6.32-0.02c-3.17-0.09-5.23-2.11-5.25-5.3c-0.05-8.74-0.04-17.48,0-26.22c0.02-3.21,2.18-5.4,5.15-5.4
		c2.98,0,5.16,2.17,5.2,5.37c0.06,4.4,0.02,8.79,0.02,13.19C59.51,241.76,59.69,241.87,59.86,241.97z"/>
	<path class="st0" d="M230.7,241.7c0-3.51-0.01-7.01,0-10.52c0-1.24-0.06-2.49,0.12-3.71c0.4-2.73,2.62-4.5,5.34-4.38
		c2.67,0.11,4.86,2.15,4.88,4.9c0.07,9.05,0.07,18.09,0,27.14c-0.02,2.81-2.18,4.85-5.08,4.87c-8.86,0.06-17.72,0.06-26.58,0.01
		c-3.08-0.02-5.22-2.22-5.24-5.12c-0.02-2.9,2.04-5.12,5.15-5.23c3.53-0.13,7.06-0.04,10.59-0.04c0.96,0,1.92,0,2.88,0
		c0.1-0.18,0.19-0.37,0.29-0.55c-1.29-1.21-2.63-2.37-3.88-3.62c-7.24-7.22-14.45-14.46-21.68-21.69c-1.52-1.52-2.2-3.28-1.55-5.4
		c0.62-2.02,2.03-3.24,4.08-3.63c2.01-0.38,3.59,0.46,4.99,1.86c7.92,7.94,15.86,15.86,23.77,23.8c0.48,0.48,0.83,1.08,1.25,1.63
		C230.25,241.91,230.48,241.81,230.7,241.7z"/>
</g>
</svg>
