<?xml version="1.0" standalone="no"?>
<!DOCTYPE svg PUBLIC "-//W3C//DTD SVG 20010904//EN"
 "http://www.w3.org/TR/2001/REC-SVG-20010904/DTD/svg10.dtd">
<svg version="1.0" xmlns="http://www.w3.org/2000/svg"
 width="5694.000000pt" height="4075.000000pt" viewBox="0 0 5694.000000 4075.000000"
 preserveAspectRatio="xMidYMid meet">

<g transform="translate(0.000000,4075.000000) scale(0.100000,-0.100000)"
fill="#fff" stroke="none">
<path d="M13847 38410 c-639 -61 -1122 -487 -1257 -1109 -72 -328 -40 -703 84
-996 182 -432 518 -702 991 -798 94 -19 142 -22 330 -22 312 1 474 34 700 144
145 71 253 149 360 262 267 279 398 662 382 1114 -11 324 -91 584 -254 829
-196 294 -511 493 -878 556 -133 23 -338 32 -458 20z m368 -429 c252 -52 458
-190 593 -396 190 -289 236 -711 118 -1066 -44 -132 -106 -237 -199 -336 -125
-131 -244 -201 -422 -248 -287 -77 -610 -39 -839 97 -93 55 -215 174 -281 273
-190 286 -237 698 -118 1053 103 308 322 521 621 603 113 31 154 37 302 38 96
0 161 -5 225 -18z"/>
<path d="M9012 38398 c-101 -12 -281 -59 -377 -97 -345 -138 -617 -414 -754
-766 -71 -182 -100 -326 -108 -540 -22 -615 264 -1128 760 -1364 336 -160 801
-193 1178 -86 206 59 412 173 564 314 l47 44 -155 155 -155 155 -54 -45 c-122
-102 -270 -179 -434 -225 -93 -26 -110 -28 -289 -27 -171 1 -200 3 -287 27
-174 46 -309 120 -427 231 -314 300 -395 858 -184 1281 101 202 279 366 486
449 150 60 215 71 427 70 170 0 205 -3 274 -22 156 -43 297 -115 401 -203 31
-27 61 -49 66 -49 5 0 75 64 155 142 l146 143 -67 63 c-188 174 -469 306 -740
347 -110 16 -355 18 -473 3z"/>
<path d="M34294 38395 c-462 -70 -809 -301 -1027 -680 -212 -371 -256 -879
-111 -1310 35 -106 119 -272 185 -365 110 -157 304 -319 481 -403 398 -189
929 -206 1331 -43 155 63 285 144 423 263 l49 43 -157 156 -156 157 -54 -45
c-121 -102 -270 -180 -428 -223 -117 -32 -322 -44 -451 -26 -342 48 -585 212
-734 494 -246 466 -118 1099 280 1383 88 62 215 120 330 150 123 32 350 44
473 24 175 -28 350 -104 482 -210 41 -33 79 -60 83 -60 8 0 289 268 295 281 5
12 -132 130 -214 185 -157 105 -325 176 -509 216 -119 26 -438 33 -571 13z"/>
<path d="M28320 36957 l0 -1417 225 0 225 0 0 490 0 490 297 -2 298 -3 429
-487 429 -488 264 0 c144 0 263 2 263 5 0 22 -102 143 -447 527 -218 244 -404
452 -415 464 -18 20 -18 20 88 47 263 65 448 206 555 421 74 151 91 229 93
416 1 176 -14 260 -69 391 -47 112 -113 206 -208 296 -95 89 -200 153 -320
194 -160 55 -192 57 -980 65 l-727 7 0 -1416z m1458 978 c182 -43 304 -157
368 -345 14 -42 19 -81 18 -165 -1 -118 -18 -183 -69 -270 -33 -58 -124 -138
-189 -169 -112 -53 -142 -56 -658 -56 l-478 0 0 510 0 510 473 0 c383 0 484
-3 535 -15z"/>
<path d="M18000 36950 l0 -1410 225 0 225 0 2 1074 3 1075 468 -660 468 -659
53 0 53 0 474 659 474 660 3 -1075 2 -1074 225 0 225 0 0 1410 0 1410 -262 -2
-263 -3 -393 -560 c-216 -308 -423 -604 -461 -658 l-69 -98 -463 660 -464 660
-262 0 -263 1 0 -1410z"/>
<path d="M23630 36950 l0 -1410 1045 0 1045 0 0 220 0 220 -817 2 -818 3 -3
378 -2 377 780 0 780 0 0 210 0 210 -777 2 -778 3 -3 378 -2 377 815 0 815 0
0 220 0 220 -1040 0 -1040 0 0 -1410z"/>
<path d="M38100 36950 l0 -1410 225 0 225 0 0 1410 0 1410 -225 0 -225 0 0
-1410z"/>
<path d="M42217 38353 c-11 -18 -1257 -2802 -1257 -2807 0 -3 107 -6 239 -6
l238 0 133 295 133 295 765 -2 765 -3 133 -290 132 -290 242 -3 c193 -2 241 0
237 10 -6 16 -1175 2623 -1224 2731 l-36 77 -248 0 c-136 0 -250 -3 -252 -7z
m548 -1133 c158 -355 289 -653 292 -662 5 -17 -28 -18 -587 -18 -563 0 -592 1
-588 18 12 45 584 1320 590 1314 3 -4 135 -297 293 -652z"/>
<path d="M46390 36950 l0 -1410 970 0 970 0 0 210 0 210 -745 0 -745 0 0 1200
0 1200 -225 0 -225 0 0 -1410z"/>
<path d="M26236 32840 c-1137 -79 -2295 -415 -3253 -946 -1154 -639 -2044
-1505 -2734 -2661 -525 -878 -843 -1873 -968 -3028 -33 -303 -43 -488 -43
-795 0 -753 95 -1277 396 -2175 136 -406 265 -734 431 -1100 41 -92 74 -169
73 -170 -2 -1 -115 -59 -253 -128 -566 -285 -1121 -610 -1685 -987 -530 -355
-962 -706 -1409 -1145 -679 -667 -1185 -1334 -1632 -2150 -369 -676 -609
-1337 -758 -2095 -38 -194 -92 -545 -107 -692 l-7 -68 2240 0 2240 0 7 101
c14 225 74 565 142 813 178 646 469 1163 941 1671 358 385 783 764 1188 1060
200 146 629 425 653 425 9 0 2957 -5708 2957 -5724 0 -26 -397 -282 -675 -434
-586 -322 -1303 -561 -1825 -607 -252 -23 -605 -15 -760 16 -27 5 -102 14
-165 20 -895 75 -1583 504 -2006 1249 -96 170 -214 469 -264 668 l-11 42
-4529 0 c-2492 0 -4530 2 -4530 5 0 2 1588 4227 3529 9387 1940 5161 3531
9393 3535 9406 l7 22 -4060 0 -4060 0 -36 -112 c-19 -62 -1752 -5632 -3849
-12378 l-3814 -12265 9891 -9 c7500 -7 9971 -6 10217 3 432 15 733 44 1105
107 1256 212 2696 797 3887 1581 l107 71 79 -152 c44 -83 261 -504 483 -936
1400 -2726 2790 -5425 2799 -5434 9 -9 6202 -1956 6207 -1952 2 2 -1795 3485
-5243 10160 -415 803 -754 1463 -754 1466 0 4 40 72 89 151 712 1157 4291
7934 9136 17299 328 635 626 1210 662 1278 l64 122 3070 0 3070 0 13 -32 c7
-18 371 -1061 809 -2318 438 -1257 2191 -6287 3897 -11179 1705 -4892 3100
-8899 3100 -8903 0 -5 -1377 -7 -3060 -6 -2505 2 -3062 5 -3069 16 -4 7 -266
872 -582 1923 l-574 1909 -3812 2 c-2097 2 -4635 3 -5640 3 l-1827 0 -216
-425 c-118 -234 -557 -1097 -973 -1917 l-758 -1493 99 -162 c54 -90 181 -304
281 -475 101 -172 191 -323 200 -335 18 -21 23 -12 324 583 168 332 607 1198
975 1924 l669 1320 434 3 c239 2 2477 0 4975 -4 l4541 -6 353 -1175 c198 -659
349 -1178 344 -1182 -5 -4 -1071 -338 -2369 -741 -1298 -403 -2367 -737 -2375
-741 -8 -4 3012 -8 6713 -8 3700 1 6727 4 6727 8 0 6 -3476 9979 -7734 22191
l-762 2185 -264 6 c-146 4 -1815 7 -3710 7 l-3445 1 -332 -667 c-1564 -3139
-3453 -6616 -4988 -9182 -1700 -2842 -3086 -4841 -4267 -6156 -176 -197 -614
-635 -768 -770 -238 -208 -455 -373 -470 -358 -12 12 -2522 4783 -2527 4803
-3 12 59 48 264 150 1967 981 3426 2063 4457 3306 169 203 396 510 551 745
576 868 938 1773 1079 2690 112 734 93 1386 -59 2005 -302 1231 -1103 2186
-2347 2800 -772 381 -1562 587 -2558 665 -185 15 -925 21 -1094 10z m399
-3915 c580 -91 947 -347 1175 -820 177 -367 194 -764 55 -1244 -140 -483 -472
-1017 -952 -1533 -517 -557 -1247 -1074 -2128 -1508 -294 -145 -447 -212 -456
-203 -5 5 -46 92 -92 193 -333 735 -540 1418 -609 2015 -17 145 -17 609 0 745
91 735 435 1356 1007 1814 396 317 802 493 1280 555 117 16 593 6 720 -14z"/>
<path d="M42359 27029 c-7 -13 -1076 -2092 -2375 -4619 l-2363 -4595 32 -2
c18 -1 1710 -4 3760 -5 l3729 -3 -6 30 c-3 17 -626 2098 -1384 4624 -1263
4209 -1380 4593 -1393 4570z m626 -5424 c460 -1534 838 -2798 841 -2808 6 -18
-74 -18 -2293 -11 -1264 4 -2300 8 -2302 10 -3 3 2858 5576 2887 5624 l15 25
8 -25 c5 -14 384 -1280 844 -2815z"/>
</g>
</svg>
