<?xml version="1.0" encoding="utf-8"?>
<!-- Generator: Adobe Illustrator 25.4.2, SVG Export Plug-In . SVG Version: 6.00 Build 0)  -->
<svg version="1.1" id="Camada_1" xmlns="http://www.w3.org/2000/svg" xmlns:xlink="http://www.w3.org/1999/xlink" x="0px" y="0px"
	 viewBox="0 0 290.45 312.82" style="enable-background:new 0 0 290.45 312.82;" xml:space="preserve">
<style type="text/css">
	.st0{fill:#CD090B;}
</style>
<g>
	<path class="st0" d="M143.25,279.34c-3.08-0.94-6.27-1.62-9.22-2.87c-7.66-3.24-13.1-8.86-16.56-16.4
		c-1.42-3.1-0.92-5.23,1.37-6.22c2.17-0.94,3.91,0.09,5.31,3.16c4.47,9.79,14.11,15.64,24.63,14.94c10.5-0.7,19.44-7.92,22.4-18.1
		c3.81-13.1-3.67-26.96-16.7-30.96c-13.04-4-27.01,3.23-31.24,16.18c-0.2,0.62-0.33,1.26-0.55,1.87c-0.78,2.14-2.65,3.18-4.57,2.56
		c-1.97-0.63-2.97-2.46-2.4-4.65c2.02-7.77,6.23-14.15,12.97-18.51c3.62-2.34,7.74-3.89,11.72-5.84c-0.26-0.28-0.77-0.87-1.31-1.42
		c-20.85-20.86-41.73-41.69-62.54-62.58c-3.29-3.3-6.92-4.67-11.64-3.98c-10.2,1.49-20.44,2.69-30.68,3.96
		c-6.63,0.82-12.47-2.83-14.7-9.11c-0.18-0.51-0.44-1-0.66-1.51c0-1.79,0-3.58,0-5.36c0.31-0.72,0.63-1.45,0.94-2.17
		c2.13-5.01,5.95-7.8,11.29-8.49c11.12-1.42,22.23-2.85,33.36-4.12c2.72-0.31,5.5-0.05,8.66-0.05c-0.64-0.7-1.13-1.26-1.65-1.78
		c-4.77-4.77-9.56-9.52-14.31-14.31c-5.33-5.37-5.32-11.59,0.02-16.94c7.98-8,15.96-15.99,23.97-23.96c2.36-2.35,5.6-1.88,6.48,0.86
		c0.57,1.76-0.12,3.13-1.39,4.36c-4.3,4.2-8.55,8.43-12.64,12.47c14.57,14.56,28.97,28.96,43.25,43.23
		c8.5-8.5,17.28-17.28,25.87-25.87c-14.21-14.17-28.61-28.54-43.25-43.13c0.49-0.14,0.31-0.14,0.2-0.05c-2.45,2-4.46,2.17-5.99,0.51
		c-1.56-1.7-1.23-3.69,1.02-5.94c5.23-5.23,10.45-10.47,15.69-15.68c5.02-4.99,11.4-5.09,16.4-0.11
		c16.76,16.69,33.46,33.42,50.17,50.16c0.91,0.91,1.66,1.98,2.81,3.37c2.67-2.75,5.34-5.51,8.02-8.26c1.08-1.11,2.17-2.2,3.28-3.27
		c4.95-4.8,11.32-4.83,16.24,0.06c9.52,9.45,18.98,18.95,28.46,28.43c9.48,9.48,18.97,18.96,28.44,28.45
		c5.86,5.86,5.83,11.88-0.09,17.8c-7.07,7.06-14.15,14.11-21.34,21.27c0.69,0.38,1.17,0.66,1.66,0.92
		c8.37,4.46,10.07,14.75,3.45,21.59c-5.26,5.43-10.67,10.71-16.01,16.05c-6.32,6.32-12.79,12.5-18.93,18.99
		c-9.12,9.64-20.07,14.33-33.4,13.18c-0.2,3.5-0.08,7-0.67,10.39c-2.4,13.99-12.93,24.18-26.98,26.45
		c-0.47,0.08-0.92,0.28-1.38,0.42C148.12,279.34,145.69,279.34,143.25,279.34z M120.21,156.27c0.41,0.43,0.78,0.85,1.18,1.25
		c16.32,16.32,32.64,32.64,48.96,48.95c2.07,2.07,4.08,4.21,6.25,6.16c4.25,3.83,10.51,3.8,14.17,0.1
		c-1.09-0.96-2.25-1.85-3.28-2.88c-13.12-13.09-26.22-26.19-39.32-39.3c-0.52-0.52-1.08-1.01-1.47-1.62
		c-0.98-1.54-0.92-3.12,0.35-4.47c1.26-1.34,2.83-1.62,4.42-0.65c0.82,0.5,1.5,1.23,2.19,1.91c12.82,12.81,25.64,25.62,38.46,38.43
		c3.11,3.11,4.54,3.1,7.69-0.05c12.76-12.75,25.52-25.51,38.27-38.27c7.18-7.18,14.37-14.36,21.54-21.56
		c1.91-1.91,2.3-3.76,0.82-5.36c-2.68-2.91-5.57-5.62-8.7-8.75c-0.74,0.9-1.31,1.7-1.99,2.38c-16.94,16.96-33.89,33.91-50.85,50.86
		c-4.06,4.06-7.81,4.08-11.83,0.07c-8.4-8.38-16.79-16.77-25.17-25.17c-4.13-4.14-4.12-7.84,0.02-11.98
		c16.95-16.95,33.9-33.91,50.87-50.84c0.69-0.69,1.52-1.23,2.43-1.96c-4.29-4.28-8.25-8.23-12.22-12.18
		c-3.03-3.02-4.52-3.03-7.51-0.05c-13.16,13.16-26.32,26.32-39.48,39.47c-6.78,6.78-13.58,13.55-20.34,20.34
		c-2.46,2.47-2.43,4.14,0.04,6.65c1.71,1.74,3.48,3.42,5.16,5.18c1.81,1.9,1.88,4.06,0.27,5.59c-1.51,1.42-3.63,1.3-5.41-0.45
		c-2.81-2.78-5.55-5.65-8.37-8.53C125.09,151.68,122.74,153.89,120.21,156.27z M183.91,234.9c8.61-0.1,15.94-3.23,22.03-9.33
		c12-12.02,24.02-24.01,36.02-36.03c0.68-0.68,1.37-1.42,1.85-2.24c2.36-4.04-0.56-9.28-5.2-8.89c-1.88,0.16-3.99,1.39-5.38,2.76
		c-11.76,11.56-23.38,23.27-35.05,34.93c-9.08,9.08-19.51,9.05-28.65-0.08c-12.01-12-24.02-24.01-36.03-36.02
		c-14.59-14.59-29.2-29.17-43.78-43.78c-6.76-6.77-14.91-10.18-24.44-9.22c-11.14,1.12-22.24,2.74-33.35,4.16
		c-2.43,0.31-4.27,1.48-5.24,3.81c-0.89,2.14-0.58,4.17,0.82,5.97c1.74,2.25,4.12,2.59,6.79,2.24c9.9-1.31,19.83-2.41,29.71-3.85
		c7.22-1.05,12.95,1.25,18.01,6.34c22.4,22.52,44.9,44.96,67.41,67.38c0.95,0.95,2.36,1.69,3.67,1.98c9.64,2.12,17.31,7.12,22,15.84
		c1.63,3.03,3.64,3.97,6.63,4.04C182.45,234.91,183.18,234.9,183.91,234.9z M68.39,86.15c-0.46,0.25-0.63,0.29-0.73,0.4
		c-1.62,1.6-3.23,3.2-4.84,4.81c-3.02,3.03-3.03,4.51-0.02,7.52c16.14,16.15,32.29,32.29,48.44,48.43c3.33,3.33,4.55,3.33,7.85,0.03
		c17.3-17.29,34.59-34.58,51.89-51.88c3.11-3.11,3.1-4.55-0.03-7.68c-16.09-16.09-32.18-32.17-48.27-48.26
		c-0.57-0.57-1.13-1.18-1.77-1.67c-1.47-1.13-3.15-1.24-4.46,0.02c-3.77,3.64-7.39,7.42-11.36,11.43c0.8,0.65,1.56,1.15,2.19,1.78
		c13.51,13.49,27.02,26.99,40.52,40.5c4.1,4.11,4.11,7.86-0.02,12c-8.38,8.4-16.77,16.79-25.17,25.16c-4.01,4-7.76,3.95-11.81-0.1
		c-8.05-8.04-16.09-16.08-24.13-24.13C80.58,98.4,74.51,92.3,68.39,86.15z M192.79,178.53c17.91-17.9,35.75-35.74,53.41-53.39
		c-8.66-8.66-17.48-17.47-25.95-25.94c-17.74,17.72-35.63,35.59-53.4,53.34C175.43,161.13,184.19,169.91,192.79,178.53z"/>
	<path class="st0" d="M107.11,69.99c-0.78,1.32-1.18,2.42-1.93,3.18c-4.01,4.12-8.08,8.19-12.19,12.21
		c-1.79,1.76-3.85,1.78-5.39,0.27c-1.49-1.47-1.46-3.66,0.24-5.39c4.09-4.16,8.15-8.36,12.43-12.3c0.92-0.85,2.86-1.18,4.12-0.87
		C105.43,67.34,106.15,68.89,107.11,69.99z"/>
	<path class="st0" d="M115.44,78.47c-0.83,1.3-1.29,2.36-2.04,3.13c-3.9,4-7.86,7.95-11.84,11.87c-1.99,1.96-4.17,2.07-5.74,0.39
		c-1.46-1.56-1.26-3.66,0.63-5.56c3.99-4.03,8.02-8.02,12.02-12.04c1.28-1.29,2.86-1.83,4.38-0.86
		C113.89,76.06,114.52,77.35,115.44,78.47z"/>
	<path class="st0" d="M128.95,91.88c-0.77,1.29-1.17,2.39-1.91,3.16c-4.01,4.12-8.09,8.18-12.19,12.2
		c-1.82,1.78-3.82,1.81-5.38,0.27c-1.5-1.49-1.47-3.65,0.25-5.4c4.09-4.16,8.14-8.36,12.43-12.3c0.92-0.85,2.88-1.16,4.14-0.85
		C127.31,89.22,128.01,90.79,128.95,91.88z"/>
	<path class="st0" d="M147.05,233.02c7.74-0.02,13.95,6.16,13.94,13.91c-0.01,7.73-6.22,13.92-13.96,13.89
		c-7.57-0.02-13.77-6.19-13.87-13.79C133.06,239.4,139.37,233.04,147.05,233.02z M147.13,253.5c3.71-0.02,6.6-3,6.53-6.74
		c-0.07-3.62-2.97-6.45-6.59-6.43c-3.57,0.02-6.53,2.94-6.59,6.49C140.43,250.45,143.48,253.51,147.13,253.5z"/>
	<path class="st0" d="M234.28,128.9c-0.89,1.03-1.57,2.54-2.62,2.87c-1.17,0.36-3.1,0.11-3.95-0.68c-4.4-4.07-8.59-8.36-12.77-12.65
		c-1.58-1.62-1.53-3.81-0.11-5.22c1.47-1.47,3.52-1.54,5.21,0.09c3.67,3.54,7.25,7.19,10.86,10.79c0.63,0.63,1.34,1.21,1.85,1.92
		C233.29,126.78,233.65,127.68,234.28,128.9z"/>
	<path class="st0" d="M191.53,137.01c0.89-0.94,1.59-2.24,2.61-2.59c1.04-0.36,2.83-0.24,3.57,0.45c4.6,4.32,9.06,8.8,13.43,13.37
		c1.41,1.48,1.2,3.35-0.29,4.8c-1.49,1.44-3.33,1.59-4.81,0.17c-4.49-4.33-8.88-8.76-13.23-13.23
		C192.2,139.34,192.05,138.26,191.53,137.01z"/>
	<path class="st0" d="M198.92,164.14c-0.8,0.99-1.43,2.46-2.47,2.87c-1.06,0.42-2.98,0.28-3.75-0.44
		c-4.56-4.25-8.94-8.7-13.28-13.17c-1.44-1.49-1.31-3.26,0.06-4.82c1.29-1.47,3.51-1.69,5.01-0.23c4.43,4.27,8.76,8.65,13.07,13.04
		C198.13,161.98,198.33,162.93,198.92,164.14z"/>
	<path class="st0" d="M225.88,137.27c-0.77,0.95-1.37,2.37-2.36,2.75c-1.1,0.42-3.03,0.38-3.79-0.32
		c-4.62-4.3-9.08-8.78-13.45-13.34c-1.39-1.45-1.22-3.36,0.26-4.81c1.47-1.45,3.3-1.63,4.8-0.19c4.49,4.33,8.88,8.76,13.24,13.21
		C225.16,135.15,225.35,136.11,225.88,137.27z"/>
</g>
</svg>
